# xmcd CD database file generated by MAGIX-FreeDB-MP3_Maker_14 v2.0beta1
# 
# Track frame offsets:
#      150
#      10560
#      25650
#      39480
#      55290
#      73440
#      86190
#      103800
#      121050
#      133440
#      145470
#      162720
#      181050
#      198300
# 
# Disc length: 2809 seconds
# 
# Revision: 0 
# Processed by: cddbd v1.5.2PL0 Copyright (c) Steve Scherf et al.
# Submitted via: MAGIX-FreeDB-MP3_Maker_14 v2.0beta1
# 
DISCID=cd0af70e
DTITLE=Britta T. - looking back
DYEAR=1900
DGENRE=
TTITLE0=Britta T. - Knock, Knock
TTITLE1=Britta T. - You Make Me Feel Like A Woman
TTITLE2=Britta T. - Oh What A Love
TTITLE3=Britta T. - Take Another Run
TTITLE4=Britta T. - Rompin´Stompin´Bad News Blues
TTITLE5=Britta T. - Makin´Good Lovin´
TTITLE6=Britta T. - Why Not Me
TTITLE7=Britta T. - If You Ever Feel Like Fallin´
TTITLE8=Britta T. - Forever You
TTITLE9=Britta T. - I Was Just Teasing You
TTITLE10=Britta T. - Diggin´
TTITLE11=Britta T. - Desperado
TTITLE12=Britta T. - This One
TTITLE13=Britta T. - Stand By Your Man
EXTD=
EXTT0=
EXTT1=
EXTT2=
EXTT3=
EXTT4=
EXTT5=
EXTT6=
EXTT7=
EXTT8=
EXTT9=
EXTT10=
EXTT11=
EXTT12=
EXTT13=
PLAYORDER=
